<?xml version="1.0" encoding="UTF-8"?>
<!DOCTYPE svg PUBLIC "-//W3C//DTD SVG 1.1//EN" "http://www.w3.org/Graphics/SVG/1.1/DTD/svg11.dtd">
<!-- Creator: CorelDRAW 2018 (64 Bit) -->
<svg xmlns="http://www.w3.org/2000/svg" xml:space="preserve" width="33.1892mm" height="33.1892mm" version="1.1" style="shape-rendering:geometricPrecision; text-rendering:geometricPrecision; image-rendering:optimizeQuality; fill-rule:evenodd; clip-rule:evenodd"
viewBox="0 0 3318.92 3318.92"
 xmlns:xlink="http://www.w3.org/1999/xlink">
 <defs>
  <style type="text/css">
   <![CDATA[
    .str1 {stroke:#2CD697;stroke-width:33.86;stroke-miterlimit:22.9256}
    .str0 {stroke:#2CD697;stroke-width:33.87;stroke-miterlimit:22.9256}
    .fil0 {fill:none}
   ]]>
  </style>
 </defs>
 <g id="Camada_x0020_1">
  <metadata id="CorelCorpID_0Corel-Layer"/>
  <path class="fil0 str0" d="M2691.94 440.72c102.87,0 186.26,83.39 186.26,186.27 0,102.87 -83.39,186.26 -186.26,186.26 -102.88,0 -186.27,-83.39 -186.27,-186.26 0,-102.88 83.39,-186.27 186.27,-186.27z"/>
  <path class="fil0 str0" d="M2691.94 2505.66c102.87,0 186.26,83.39 186.26,186.27 0,102.87 -83.39,186.26 -186.26,186.26 -102.88,0 -186.27,-83.39 -186.27,-186.26 0,-102.88 83.39,-186.27 186.27,-186.27z"/>
  <path class="fil0 str0" d="M626.99 2505.67c102.87,0 186.26,83.39 186.26,186.27 0,102.87 -83.39,186.26 -186.26,186.26 -102.88,0 -186.27,-83.39 -186.27,-186.26 0,-102.88 83.39,-186.27 186.27,-186.27z"/>
  <path class="fil0 str1" d="M1659.48 198.96c336.28,0 645.99,113.71 892.84,304.74 -29.02,32.85 -46.65,76.01 -46.65,123.3 0.01,102.86 83.39,186.25 186.26,186.25 47.28,0 90.44,-17.62 123.29,-46.65 191,246.89 304.74,556.58 304.74,892.87 0,336.29 -113.72,645.98 -304.73,892.85 -32.84,-29.03 -76,-46.66 -123.29,-46.66 -102.88,0 -186.26,83.39 -186.27,186.27 0,47.29 17.62,90.45 46.66,123.29 -246.87,191.03 -556.57,304.74 -892.88,304.74 -336.29,0 -645.98,-113.73 -892.86,-304.73 29.04,-32.84 46.66,-76 46.66,-123.29 -0.01,-102.88 -83.39,-186.26 -186.26,-186.27 -47.29,0 -90.45,17.63 -123.29,46.66 -191.02,-246.86 -304.74,-556.57 -304.75,-892.87 0,-336.3 113.73,-646 304.75,-892.86 32.84,29.03 76,46.66 123.29,46.66 102.88,0 186.27,-83.41 186.27,-186.27 0,-47.29 -17.62,-90.44 -46.65,-123.29 246.89,-191 556.57,-304.73 892.87,-304.74z"/>
  <path class="fil0 str0" d="M627 440.72c102.87,0 186.26,83.39 186.26,186.27 0,102.87 -83.39,186.26 -186.26,186.26 -102.88,0 -186.27,-83.39 -186.27,-186.26 0,-102.88 83.39,-186.27 186.27,-186.27z"/>
 </g>
</svg>
