<svg xmlns="http://www.w3.org/2000/svg" width="37" height="37" fill="none" viewBox="0 0 37 37">
  <path fill="#fff" d="M0 18.5a18.5 18.5 0 1 1 37 0 18.5 18.5 0 0 1-37 0ZM17.344 2.49c-1.55.472-3.087 1.897-4.364 4.29a17.66 17.66 0 0 0-.913 2.017c1.63.363 3.404.594 5.277.663V2.49ZM9.826 8.185c.328-.888.703-1.72 1.112-2.493.4-.756.862-1.478 1.38-2.157a16.21 16.21 0 0 0-5.263 3.52c.838.425 1.765.806 2.77 1.132v-.002Zm-1.711 9.16c.083-2.475.434-4.826 1.008-6.956a21.102 21.102 0 0 1-3.62-1.543 16.104 16.104 0 0 0-3.149 8.499h5.761Zm3.237-6.339a28.541 28.541 0 0 0-.925 6.339h6.917v-5.571a31.233 31.233 0 0 1-5.992-.768Zm8.304.766v5.573h6.915a28.534 28.534 0 0 0-.923-6.339 31.416 31.416 0 0 1-5.992.768v-.002Zm-9.227 7.885c.081 2.283.407 4.426.923 6.339a31.48 31.48 0 0 1 5.992-.766v-5.573h-6.915Zm9.227 0v5.571c2.105.07 4.123.335 5.992.768.516-1.913.842-4.056.925-6.339h-6.917Zm-7.59 8.547c.278.722.583 1.397.914 2.017 1.277 2.393 2.817 3.815 4.364 4.29v-6.968c-1.873.07-3.647.3-5.277.664v-.003Zm.255 5.264c-.52-.68-.982-1.402-1.383-2.158a20.473 20.473 0 0 1-1.112-2.495c-.951.305-1.878.684-2.77 1.133a16.21 16.21 0 0 0 5.263 3.52h.002Zm-3.198-6.855c-.6-2.272-.94-4.606-1.01-6.956h-5.76a16.102 16.102 0 0 0 3.15 8.499 21.005 21.005 0 0 1 3.619-1.543Zm15.558 6.855a16.21 16.21 0 0 0 5.261-3.518 19.368 19.368 0 0 0-2.768-1.133 20.474 20.474 0 0 1-1.112 2.493c-.4.756-.862 1.478-1.38 2.158Zm-5.025-5.927v6.97c1.55-.472 3.087-1.897 4.364-4.29.33-.62.638-1.295.913-2.017a29.206 29.206 0 0 0-5.277-.661v-.002Zm8.221-.928c1.318.428 2.532.946 3.62 1.543a16.101 16.101 0 0 0 3.149-8.499h-5.758a30.893 30.893 0 0 1-1.01 6.956Zm6.769-9.268a16.101 16.101 0 0 0-3.15-8.499 21.005 21.005 0 0 1-3.619 1.543c.574 2.127.925 4.481 1.01 6.956h5.759ZM26.062 5.69c.41.772.784 1.605 1.114 2.493.95-.306 1.875-.685 2.766-1.133a16.21 16.21 0 0 0-5.26-3.515c.503.654.966 1.38 1.38 2.155Zm-1.129 3.106a17.947 17.947 0 0 0-.913-2.017c-1.277-2.393-2.814-3.815-4.364-4.29v6.968c1.873-.07 3.647-.3 5.277-.664v.003Z"/>
</svg>
