<svg xmlns="http://www.w3.org/2000/svg" width="37" height="37" fill="none" viewBox="0 0 37 37">
  <path fill="#fff" d="M0 2.65C0 1.186 1.216 0 2.717 0h31.566C35.783 0 37 1.186 37 2.65v31.7c0 1.464-1.216 2.65-2.717 2.65H2.717C1.217 37 0 35.814 0 34.35V2.65Zm11.43 28.324V14.266H5.879v16.708h5.553Zm-2.774-18.99c1.935 0 3.14-1.282 3.14-2.887-.035-1.64-1.202-2.886-3.103-2.886-1.901 0-3.143 1.25-3.143 2.886 0 1.605 1.205 2.886 3.069 2.886h.037Zm11.35 18.99v-9.331c0-.5.036-1 .184-1.355.4-.997 1.314-2.03 2.85-2.03 2.009 0 2.811 1.53 2.811 3.778v8.938h5.553V21.39c0-5.134-2.738-7.52-6.392-7.52-2.946 0-4.267 1.618-5.007 2.758v.058h-.037l.037-.058v-2.363h-5.55c.07 1.568 0 16.708 0 16.708h5.55Z"/>
</svg>
