<svg xmlns="http://www.w3.org/2000/svg" width="37" height="37" fill="none" viewBox="0 0 37 37">
  <path fill="#fff" d="M36.086 16.318C36.086 6.696 28.793 0 18.309 0 7.445 0 0 7.517 0 18.49 0 29.817 7.248 37 18.685 37c2.795 0 5.477-.399 7.471-1.086v-2.796c-1.394.646-4.39 1.064-7.426 1.064-9.488 0-15.607-6.096-15.607-15.559 0-9.222 6.23-15.828 14.897-15.828 8.869 0 14.943 5.474 14.943 13.477 0 5.455-1.797 8.98-4.592 8.98-1.595 0-2.503-.909-2.503-2.465V9.78H22.52v2.705h-.357c-.862-1.93-2.857-3.126-5.188-3.126-4.54 0-7.711 3.768-7.711 9.154 0 5.633 3.103 9.423 7.714 9.423 2.594 0 4.589-1.264 5.542-3.524h.357c.262 2.172 2.28 3.722 4.874 3.722 5.097 0 8.334-4.588 8.334-11.813v-.003ZM12.812 18.6c0-3.881 1.751-6.183 4.722-6.183 3.015 0 4.942 2.393 4.942 6.184 0 3.79-1.95 6.206-4.988 6.206-2.902 0-4.676-2.35-4.676-6.206Z"/>
</svg>
