<svg xmlns="http://www.w3.org/2000/svg" width="37" height="38" fill="none" viewBox="0 0 37 38">
  <path fill="#fff" d="M31.503 5.388A18.191 18.191 0 0 0 18.516 0C8.401 0 .158 8.241.148 18.36c0 3.24.848 6.392 2.449 9.184L0 37.06l9.737-2.553a18.375 18.375 0 0 0 8.779 2.236h.01c10.117 0 18.358-8.242 18.367-18.368a18.293 18.293 0 0 0-5.392-12.987h.002ZM18.516 33.634a15.232 15.232 0 0 1-7.773-2.13l-.556-.334-5.777 1.515 1.543-5.636-.362-.581a15.194 15.194 0 0 1-2.332-8.119c0-8.398 6.85-15.25 15.266-15.25A15.194 15.194 0 0 1 29.32 7.572a15.188 15.188 0 0 1 4.466 10.794c-.01 8.428-6.859 15.268-15.269 15.268Zm8.373-11.428c-.456-.23-2.71-1.339-3.134-1.496-.421-.15-.73-.23-1.03.229-.308.456-1.189 1.496-1.453 1.795-.264.308-.537.343-.996.116-.456-.232-1.936-.714-3.687-2.282-1.367-1.216-2.282-2.721-2.555-3.178-.264-.458-.025-.704.204-.933.202-.204.456-.537.686-.801.231-.264.308-.459.458-.765.15-.31.079-.574-.035-.803-.115-.23-1.03-2.493-1.417-3.405-.37-.901-.748-.776-1.03-.788-.265-.016-.573-.016-.881-.016a1.688 1.688 0 0 0-1.225.572c-.422.459-1.6 1.568-1.6 3.831s1.644 4.438 1.875 4.746c.227.308 3.23 4.938 7.836 6.93a25.52 25.52 0 0 0 2.615.968c1.1.353 2.094.3 2.886.186.88-.135 2.713-1.112 3.1-2.184.38-1.075.38-1.992.263-2.185-.113-.194-.421-.308-.88-.537Z"/>
</svg>
